<svg width="1600" height="1200" viewBox="0 0 1600 1200" fill="none" xmlns="http://www.w3.org/2000/svg">
  <defs>
    <linearGradient id="air-bg" x1="155" y1="70" x2="1456" y2="1110" gradientUnits="userSpaceOnUse">
      <stop stop-color="#0A1123"/>
      <stop offset="0.48" stop-color="#122547"/>
      <stop offset="1" stop-color="#0A162B"/>
    </linearGradient>
    <linearGradient id="air-window" x1="206" y1="168" x2="1350" y2="988" gradientUnits="userSpaceOnUse">
      <stop stop-color="#F9FCFF"/>
      <stop offset="1" stop-color="#EAF2FF"/>
    </linearGradient>
    <linearGradient id="air-hero" x1="286" y1="262" x2="1320" y2="520" gradientUnits="userSpaceOnUse">
      <stop stop-color="#2E5FAE"/>
      <stop offset="0.62" stop-color="#54A8FF"/>
      <stop offset="1" stop-color="#BCE8FF"/>
    </linearGradient>
    <radialGradient id="air-glow" cx="0" cy="0" r="1" gradientUnits="userSpaceOnUse" gradientTransform="translate(1108 245) rotate(121) scale(620 410)">
      <stop stop-color="#73E2FF" stop-opacity="0.34"/>
      <stop offset="1" stop-color="#73E2FF" stop-opacity="0"/>
    </radialGradient>
  </defs>

  <rect width="1600" height="1200" rx="52" fill="url(#air-bg)"/>
  <rect x="102" y="72" width="1406" height="1040" rx="52" fill="url(#air-glow)"/>

  <rect x="170" y="144" width="1260" height="912" rx="44" fill="url(#air-window)"/>
  <rect x="170" y="144" width="1260" height="82" rx="44" fill="#0C1730"/>
  <circle cx="240" cy="185" r="10" fill="#FF7D66"/>
  <circle cx="272" cy="185" r="10" fill="#FFC44D"/>
  <circle cx="304" cy="185" r="10" fill="#42D997"/>

  <rect x="1126" y="166" width="216" height="40" rx="20" fill="#15264B"/>
  <rect x="1152" y="179" width="98" height="14" rx="7" fill="#6E8FCD"/>
  <rect x="1264" y="179" width="48" height="14" rx="7" fill="#92C7FF"/>

  <rect x="232" y="262" width="1136" height="276" rx="36" fill="url(#air-hero)"/>
  <path d="M255 474C432 343 625 283 774 284C944 285 1148 362 1334 474V506H255V474Z" fill="#B5E8FF" fill-opacity="0.28"/>
  <path d="M710 396L824 418L1170 288C1186 282 1198 300 1186 312L962 442L1034 462L1022 492L920 468L830 530H766L814 458L708 432L710 396Z" fill="#FDFEFF"/>
  <text x="304" y="350" fill="#FDFEFF" font-family="Arial, Helvetica, sans-serif" font-size="28" font-weight="700">Air Astana</text>
  <text x="304" y="420" fill="#FDFEFF" font-family="Arial, Helvetica, sans-serif" font-size="64" font-weight="700">Booking experience with premium clarity</text>
  <text x="304" y="470" fill="#E8F4FF" font-family="Arial, Helvetica, sans-serif" font-size="28">Flight search, route information and loyalty flows arranged for fast decision-making.</text>

  <rect x="258" y="560" width="682" height="356" rx="34" fill="#FFFFFF"/>
  <rect x="292" y="598" width="614" height="120" rx="28" fill="#EEF4FF"/>
  <rect x="326" y="632" width="122" height="20" rx="10" fill="#16325B"/>
  <rect x="326" y="670" width="188" height="16" rx="8" fill="#7D95B8"/>
  <rect x="540" y="620" width="156" height="78" rx="24" fill="#FFFFFF"/>
  <text x="582" y="668" fill="#16325B" font-family="Arial, Helvetica, sans-serif" font-size="34" font-weight="700">ALA</text>
  <rect x="716" y="620" width="156" height="78" rx="24" fill="#FFFFFF"/>
  <text x="756" y="668" fill="#16325B" font-family="Arial, Helvetica, sans-serif" font-size="34" font-weight="700">LHR</text>
  <path d="M658 661H706" stroke="#3B78D8" stroke-width="8" stroke-linecap="round"/>
  <circle cx="662" cy="661" r="8" fill="#16325B"/>
  <circle cx="702" cy="661" r="8" fill="#63D4FF"/>

  <rect x="292" y="748" width="286" height="134" rx="28" fill="#0F1A31"/>
  <rect x="324" y="782" width="120" height="18" rx="9" fill="#72E1FF"/>
  <rect x="324" y="816" width="196" height="16" rx="8" fill="#7E95B7"/>
  <rect x="324" y="850" width="166" height="16" rx="8" fill="#7E95B7"/>

  <rect x="606" y="748" width="300" height="134" rx="28" fill="#132B52"/>
  <rect x="638" y="782" width="130" height="18" rx="9" fill="#FFFFFF"/>
  <rect x="638" y="816" width="214" height="16" rx="8" fill="#9DD9FF"/>
  <rect x="638" y="850" width="188" height="16" rx="8" fill="#9DD9FF"/>

  <rect x="978" y="560" width="330" height="408" rx="36" fill="#FFFFFF"/>
  <rect x="1008" y="594" width="270" height="150" rx="30" fill="#EEF4FF"/>
  <path d="M1038 706C1084 658 1136 620 1248 612" stroke="#6BAAF2" stroke-width="8" stroke-linecap="round" stroke-dasharray="10 18"/>
  <circle cx="1046" cy="698" r="12" fill="#16325B"/>
  <circle cx="1248" cy="612" r="12" fill="#63D4FF"/>
  <rect x="1008" y="776" width="270" height="48" rx="24" fill="#0F1A31"/>
  <text x="1078" y="808" fill="#FFFFFF" font-family="Arial, Helvetica, sans-serif" font-size="24" font-weight="700">Passenger details</text>
  <rect x="1008" y="846" width="270" height="88" rx="24" fill="#E9F0FE"/>
  <rect x="1040" y="876" width="160" height="18" rx="9" fill="#203B67"/>
  <rect x="1040" y="908" width="208" height="14" rx="7" fill="#7A8FB5"/>
</svg>
