<svg width="1600" height="1200" viewBox="0 0 1600 1200" fill="none" xmlns="http://www.w3.org/2000/svg">
  <defs>
    <linearGradient id="cm-bg" x1="184" y1="84" x2="1448" y2="1100" gradientUnits="userSpaceOnUse">
      <stop stop-color="#0B1218"/>
      <stop offset="0.52" stop-color="#112B25"/>
      <stop offset="1" stop-color="#0A1318"/>
    </linearGradient>
    <linearGradient id="cm-window" x1="210" y1="170" x2="1360" y2="986" gradientUnits="userSpaceOnUse">
      <stop stop-color="#FFFFFF"/>
      <stop offset="1" stop-color="#F1FFF8"/>
    </linearGradient>
    <linearGradient id="cm-hero" x1="290" y1="282" x2="1288" y2="486" gradientUnits="userSpaceOnUse">
      <stop stop-color="#1BC47D"/>
      <stop offset="1" stop-color="#A8F4C6"/>
    </linearGradient>
    <radialGradient id="cm-glow" cx="0" cy="0" r="1" gradientUnits="userSpaceOnUse" gradientTransform="translate(1130 258) rotate(125) scale(560 400)">
      <stop stop-color="#6BE7B4" stop-opacity="0.34"/>
      <stop offset="1" stop-color="#6BE7B4" stop-opacity="0"/>
    </radialGradient>
  </defs>

  <rect width="1600" height="1200" rx="52" fill="url(#cm-bg)"/>
  <rect x="100" y="80" width="1400" height="1040" rx="52" fill="url(#cm-glow)"/>

  <rect x="172" y="148" width="1256" height="904" rx="44" fill="url(#cm-window)"/>
  <rect x="172" y="148" width="1256" height="82" rx="44" fill="#10211A"/>
  <circle cx="242" cy="188" r="10" fill="#FF7D66"/>
  <circle cx="274" cy="188" r="10" fill="#FFC44D"/>
  <circle cx="306" cy="188" r="10" fill="#42D997"/>

  <rect x="260" y="282" width="1080" height="190" rx="34" fill="url(#cm-hero)"/>
  <text x="316" y="352" fill="#0B2117" font-family="Arial, Helvetica, sans-serif" font-size="28" font-weight="700">Clever Market</text>
  <text x="316" y="414" fill="#082117" font-family="Arial, Helvetica, sans-serif" font-size="62" font-weight="700">Promo-first grocery commerce that converts fast</text>
  <rect x="316" y="436" width="236" height="44" rx="22" fill="#0B2117"/>
  <text x="356" y="464" fill="#FFFFFF" font-family="Arial, Helvetica, sans-serif" font-size="24" font-weight="700">Custom CMS setup</text>

  <rect x="1070" y="310" width="222" height="118" rx="28" fill="#FFFFFF" fill-opacity="0.52"/>
  <rect x="1102" y="340" width="118" height="18" rx="9" fill="#0E5A3D"/>
  <rect x="1102" y="376" width="152" height="14" rx="7" fill="#4B8A73"/>
  <rect x="1102" y="402" width="114" height="14" rx="7" fill="#4B8A73"/>

  <rect x="260" y="518" width="786" height="422" rx="34" fill="#FFFFFF"/>
  <rect x="294" y="550" width="166" height="40" rx="20" fill="#E9FFF1"/>
  <text x="332" y="577" fill="#0E5A3D" font-family="Arial, Helvetica, sans-serif" font-size="22" font-weight="700">Fresh deals</text>

  <rect x="294" y="626" width="220" height="274" rx="28" fill="#F6FFF9"/>
  <rect x="336" y="662" width="136" height="120" rx="30" fill="#FFE26D"/>
  <circle cx="372" cy="728" r="24" fill="#FF8F68"/>
  <rect x="326" y="812" width="124" height="18" rx="9" fill="#173124"/>
  <rect x="326" y="842" width="94" height="14" rx="7" fill="#799C8A"/>
  <rect x="326" y="872" width="118" height="18" rx="9" fill="#0E5A3D"/>

  <rect x="542" y="626" width="220" height="274" rx="28" fill="#F6FFF9"/>
  <rect x="584" y="662" width="136" height="120" rx="30" fill="#A8F4C6"/>
  <path d="M630 708H674" stroke="#0E5A3D" stroke-width="20" stroke-linecap="round"/>
  <rect x="574" y="812" width="136" height="18" rx="9" fill="#173124"/>
  <rect x="574" y="842" width="102" height="14" rx="7" fill="#799C8A"/>
  <rect x="574" y="872" width="126" height="18" rx="9" fill="#0E5A3D"/>

  <rect x="790" y="626" width="220" height="274" rx="28" fill="#F6FFF9"/>
  <rect x="832" y="662" width="136" height="120" rx="30" fill="#6BE7B4"/>
  <rect x="854" y="690" width="92" height="64" rx="24" fill="#FFFFFF" fill-opacity="0.58"/>
  <rect x="822" y="812" width="128" height="18" rx="9" fill="#173124"/>
  <rect x="822" y="842" width="110" height="14" rx="7" fill="#799C8A"/>
  <rect x="822" y="872" width="142" height="18" rx="9" fill="#0E5A3D"/>

  <rect x="1084" y="518" width="256" height="422" rx="34" fill="#0E1618"/>
  <rect x="1110" y="548" width="204" height="54" rx="27" fill="#132625"/>
  <text x="1142" y="582" fill="#6BE7B4" font-family="Arial, Helvetica, sans-serif" font-size="22" font-weight="700">Delivery basket</text>
  <rect x="1110" y="626" width="204" height="182" rx="28" fill="#132625"/>
  <rect x="1138" y="658" width="96" height="18" rx="9" fill="#FFFFFF"/>
  <rect x="1138" y="692" width="146" height="14" rx="7" fill="#5E8276"/>
  <rect x="1138" y="724" width="130" height="14" rx="7" fill="#5E8276"/>
  <rect x="1110" y="834" width="204" height="78" rx="24" fill="#143C2C"/>
  <rect x="1138" y="862" width="112" height="18" rx="9" fill="#A8F4C6"/>
  <rect x="1264" y="862" width="22" height="22" rx="11" fill="#FFFFFF"/>
</svg>
