<svg width="17" height="17" viewBox="0 0 17 17" fill="none" xmlns="http://www.w3.org/2000/svg">
<g clip-path="url(#clip0_1_777)">
<path d="M8.76953 0.328125C6.59619 0.328125 6.32487 0.338125 5.47153 0.376125C4.61953 0.416125 4.03953 0.550125 3.52953 0.748125C3.00353 0.952125 2.55687 1.22613 2.11219 1.67079C1.66753 2.11546 1.39287 2.56146 1.18953 3.08812C0.991531 3.59812 0.856865 4.17813 0.817531 5.03013C0.777531 5.88346 0.769531 6.15479 0.769531 8.32812C0.769531 10.5015 0.779531 10.7728 0.817531 11.6261C0.857531 12.4775 0.991531 13.0582 1.18953 13.5681C1.39353 14.0935 1.66753 14.5408 2.11219 14.9855C2.55687 15.4295 3.00287 15.7048 3.52953 15.9081C4.04019 16.1055 4.62019 16.2408 5.47153 16.2801C6.32487 16.3201 6.59619 16.3281 8.76953 16.3281C10.9429 16.3281 11.2142 16.3181 12.0675 16.2801C12.9189 16.2401 13.4996 16.1055 14.0095 15.9081C14.5349 15.7041 14.9822 15.4295 15.4269 14.9855C15.8709 14.5408 16.1462 14.0954 16.3495 13.5681C16.5469 13.0582 16.6822 12.4775 16.7215 11.6261C16.7615 10.7728 16.7695 10.5015 16.7695 8.32812C16.7695 6.15479 16.7595 5.88346 16.7215 5.03013C16.6815 4.17879 16.5469 3.59746 16.3495 3.08812C16.1455 2.56212 15.8709 2.11546 15.4269 1.67079C14.9822 1.22613 14.5368 0.951459 14.0095 0.748125C13.4996 0.550125 12.9189 0.415458 12.0675 0.376125C11.2142 0.336125 10.9429 0.328125 8.76953 0.328125ZM8.76953 1.76813C10.9049 1.76813 11.1595 1.77879 12.0029 1.81546C12.7829 1.85213 13.2062 1.98146 13.4875 2.09213C13.8622 2.23679 14.1275 2.41013 14.4088 2.68946C14.6882 2.96946 14.8615 3.23546 15.0062 3.61013C15.1155 3.89146 15.2462 4.31479 15.2815 5.09479C15.3195 5.93879 15.3282 6.19213 15.3282 8.32812C15.3282 10.4641 15.3182 10.7181 15.2789 11.5615C15.2382 12.3415 15.1082 12.7648 14.9982 13.0461C14.8488 13.4208 14.6789 13.6861 14.3989 13.9674C14.1195 14.2468 13.8495 14.4201 13.4789 14.5648C13.1989 14.6741 12.7688 14.8048 11.9889 14.8401C11.1395 14.8781 10.8895 14.8868 8.74953 14.8868C6.60887 14.8868 6.35887 14.8768 5.51019 14.8375C4.72953 14.7968 4.29953 14.6668 4.01953 14.5568C3.64019 14.4074 3.37953 14.2375 3.10019 13.9575C2.81953 13.6781 2.64019 13.4081 2.50019 13.0375C2.39019 12.7575 2.26087 12.3274 2.22019 11.5475C2.19019 10.7075 2.17953 10.4481 2.17953 8.31813C2.17953 6.18746 2.19019 5.92746 2.22019 5.07746C2.26087 4.29746 2.39019 3.86813 2.50019 3.58812C2.64019 3.20813 2.81953 2.94813 3.10019 2.66746C3.37953 2.38813 3.64019 2.20813 4.01953 2.06879C4.29953 1.95813 4.72019 1.82813 5.50019 1.78813C6.35019 1.75813 6.60019 1.74812 8.73953 1.74812L8.76953 1.76813ZM8.76953 4.22013C6.49953 4.22013 4.66153 6.06013 4.66153 8.32812C4.66153 10.5981 6.50153 12.4361 8.76953 12.4361C11.0395 12.4361 12.8775 10.5961 12.8775 8.32812C12.8775 6.05813 11.0375 4.22013 8.76953 4.22013ZM8.76953 10.9948C7.29619 10.9948 6.10287 9.80146 6.10287 8.32812C6.10287 6.85479 7.29619 5.66146 8.76953 5.66146C10.2429 5.66146 11.4362 6.85479 11.4362 8.32812C11.4362 9.80146 10.2429 10.9948 8.76953 10.9948ZM14.0002 4.05813C14.0002 4.58813 13.5695 5.01813 13.0402 5.01813C12.5102 5.01813 12.0802 4.58746 12.0802 4.05813C12.0802 3.52879 12.5109 3.09879 13.0402 3.09879C13.5688 3.09813 14.0002 3.52879 14.0002 4.05813Z" fill="white"/>
</g>
<defs>
<clipPath id="clip0_1_777">
<rect width="16" height="16" fill="white" transform="translate(0.769531 0.328125)"/>
</clipPath>
</defs>
</svg>
